<!-- filename: linkedin-in-white.svg -->
<svg xmlns="http://www.w3.org/2000/svg" viewBox="0 0 34 34" width="34" height="34" role="img" aria-label="LinkedIn in logo">
  <title>LinkedIn in (white, transparent background)</title>
  <g fill="#ffffff" transform="translate(0,0)">
    <!-- white glyph (person + "in") on transparent background -->
    <path d="M10.1,27.3H5.7V12.9h4.4V27.3z M7.9,10.9c-1.4,0-2.3-1-2.3-2.2c0-1.3,0.9-2.2,2.3-2.2
      s2.3,0.9,2.3,2.2C10.2,9.9,9.3,10.9,7.9,10.9z M28.3,27.3h-4.4v-7.6c0-2-0.7-3.3-2.3-3.3c-1.3,0-2,0.9-2.3,1.8
      c-0.1,0.3-0.1,0.7-0.1,1v8.1h-4.4c0,0,0.1-13.1,0-14.4h4.4v2c0.6-0.9,1.6-2.1,4-2.1c2.9,0,5.1,1.9,5.1,6.1V27.3z"/>
  </g>
</svg>